HIERARCHY
ROOT Hips
{
	OFFSET 0.000000 0.000000 0.000000
	CHANNELS 6 Xposition Yposition Zposition Zrotation Yrotation Xrotation 
	JOINT LHipJoint
	{
		OFFSET 0.000000 0.000000 0.000000
		CHANNELS 3 Zrotation Yrotation Xrotation
		JOINT LeftUpLeg
		{
			OFFSET 1.363060 -1.794630 0.839290
			CHANNELS 3 Zrotation Yrotation Xrotation
			JOINT LeftLeg
			{
				OFFSET 2.448110 -6.726130 0.000000
				CHANNELS 3 Zrotation Yrotation Xrotation
				JOINT LeftFoot
				{
					OFFSET 2.562200 -7.039590 0.000000
					CHANNELS 3 Zrotation Yrotation Xrotation
					JOINT LeftToeBase
					{
						OFFSET 0.157640 -0.433110 2.322550
						CHANNELS 3 Zrotation Yrotation Xrotation
						End Site
						{
							OFFSET 0.000000 0.000000 0.000000
						}
					}
				}
			}
		}
	}
	JOINT RHipJoint
	{
		OFFSET 0.000000 0.000000 0.000000
		CHANNELS 3 Zrotation Yrotation Xrotation
		JOINT RightUpLeg
		{
			OFFSET -1.305520 -1.794630 0.839290
			CHANNELS 3 Zrotation Yrotation Xrotation
			JOINT RightLeg
			{
				OFFSET -2.542530 -6.985550 0.000000
				CHANNELS 3 Zrotation Yrotation Xrotation
				JOINT RightFoot
				{
					OFFSET -2.568260 -7.056230 0.000000
					CHANNELS 3 Zrotation Yrotation Xrotation
					JOINT RightToeBase
					{
						OFFSET -0.164730 -0.452590 2.363150
						CHANNELS 3 Zrotation Yrotation Xrotation
						End Site
						{
							OFFSET 0.000000 0.000000 0.000000
						}
					}
				}
			}
		}
	}
	JOINT LowerBack
	{
		OFFSET 0.000000 0.000000 0.000000
		CHANNELS 3 Zrotation Yrotation Xrotation
		JOINT Spine
		{
			OFFSET 0.028270 2.035590 -0.193380
			CHANNELS 3 Zrotation Yrotation Xrotation
			JOINT Spine1
			{
				OFFSET 0.056720 2.048850 -0.042750
				CHANNELS 3 Zrotation Yrotation Xrotation
				JOINT Neck
				{
					OFFSET 0.000000 0.000000 0.000000
					CHANNELS 3 Zrotation Yrotation Xrotation
					JOINT Neck1
					{
						OFFSET -0.054170 1.746240 0.172020
						CHANNELS 3 Zrotation Yrotation Xrotation
						JOINT Head
						{
							OFFSET 0.104070 1.761360 -0.123970
							CHANNELS 3 Zrotation Yrotation Xrotation
							End Site
							{
								OFFSET 0.000000 0.000000 0.000000
							}
						}
					}
				}
				JOINT LeftShoulder
				{
					OFFSET 0.000000 0.000000 0.000000
					CHANNELS 3 Zrotation Yrotation Xrotation
					JOINT LeftArm
					{
						OFFSET 3.362410 1.200890 -0.311210
						CHANNELS 3 Zrotation Yrotation Xrotation
						JOINT LeftForeArm
						{
							OFFSET 4.983000 -0.000000 -0.000000
							CHANNELS 3 Zrotation Yrotation Xrotation
							JOINT LeftHand
							{
								OFFSET 3.483560 -0.000000 -0.000000
								CHANNELS 3 Zrotation Yrotation Xrotation
								JOINT LeftFingerBase
								{
									OFFSET 0.000000 0.000000 0.000000
									CHANNELS 3 Zrotation Yrotation Xrotation
									JOINT LeftHandIndex1
									{
										OFFSET 0.715260 -0.000000 -0.000000
										CHANNELS 3 Zrotation Yrotation Xrotation
										End Site
										{
											OFFSET 0.000000 0.000000 0.000000
										}
									}
								}
								JOINT LThumb
								{
									OFFSET 0.000000 0.000000 0.000000
									CHANNELS 3 Zrotation Yrotation Xrotation
									End Site
									{
										OFFSET 0.000000 0.000000 0.000000
									}
								}
							}
						}
					}
				}
				JOINT RightShoulder
				{
					OFFSET 0.000000 0.000000 0.000000
					CHANNELS 3 Zrotation Yrotation Xrotation
					JOINT RightArm
					{
						OFFSET -3.136600 1.374050 -0.404650
						CHANNELS 3 Zrotation Yrotation Xrotation
						JOINT RightForeArm
						{
							OFFSET -5.241900 -0.000000 -0.000000
							CHANNELS 3 Zrotation Yrotation Xrotation
							JOINT RightHand
							{
								OFFSET -3.444170 -0.000000 -0.000000
								CHANNELS 3 Zrotation Yrotation Xrotation
								JOINT RightFingerBase
								{
									OFFSET 0.000000 0.000000 0.000000
									CHANNELS 3 Zrotation Yrotation Xrotation
									JOINT RightHandIndex1
									{
										OFFSET -0.622530 -0.000000 -0.000000
										CHANNELS 3 Zrotation Yrotation Xrotation
										End Site
										{
											OFFSET 0.000000 0.000000 0.000000
										}
									}
								}
								JOINT RThumb
								{
									OFFSET 0.000000 0.000000 0.000000
									CHANNELS 3 Zrotation Yrotation Xrotation
									End Site
									{
										OFFSET 0.000000 0.000000 0.000000
									}
								}
							}
						}
					}
				}
			}
		}
	}
}
MOTION
Frames: 5
Frame Time: 0.008333
0.451000 17.903313 0.311099 0.943460 -1.007346 3.221205 5.107898 3.674775 1.066500 -22.317226 -5.924750 6.107473 -1.992001 -0.881400 2.368952 -1.825794 9.400227 -0.479839 0.223700 -3.044300 -8.402200 -5.503367 -3.015256 0.624036 20.637458 11.554822 1.599080 -0.026372 -4.253005 13.707775 1.738862 -11.588127 -8.743038 -0.034700 1.203100 -3.307700 -4.143355 0.353603 1.997015 -2.027846 0.345295 6.303821 -1.075868 0.548492 -0.650967 -16.695926 -12.157301 -8.757159 8.433165 -16.557007 17.697439 4.470100 -8.475300 9.823600 -5.712707 -4.599936 2.183686 -38.557800 27.184051 95.309612 100.193595 -57.464373 -67.547797 3.870861 -2.380991 7.209098 51.834747 -17.979890 -17.412100 -7.125000 0.000000 0.000000 12.653900 6.591900 -11.406400 5.319530 4.101114 2.422473 41.846533 -22.869562 94.163552 -91.202651 56.686389 -57.263773 -1.123835 3.053591 39.890255 -71.047249 33.411242 -54.492900 7.125000 0.000000 0.000000 -18.241100 29.003200 -25.616200 
0.450447 17.904198 0.310989 0.981706 -1.037287 3.211800 5.109147 3.672705 1.063887 -22.363480 -5.888992 6.119643 -1.991720 -0.881472 2.369739 -1.825958 9.402565 -0.473969 0.233600 -3.110500 -8.586500 -5.503594 -3.016650 0.624933 20.599354 11.547459 1.582602 -0.031723 -4.271032 13.758994 1.727550 -11.537617 -8.777125 -0.033500 1.181700 -3.249000 -4.226811 0.359942 1.999808 -2.013642 0.347300 6.296210 -1.016329 0.549127 -0.659751 -16.747091 -12.142512 -8.848811 8.470867 -16.533603 17.784773 4.486800 -8.462000 9.878400 -5.712378 -4.601785 2.181067 -38.593791 27.189214 95.324681 100.155601 -57.467185 -67.514579 3.873729 -2.380114 7.178824 51.895714 -18.003491 -17.469900 -7.125000 0.000000 0.000000 12.683800 6.538100 -11.448300 5.321110 4.098731 2.422619 41.790172 -22.858873 94.221491 -91.251681 56.682924 -57.310015 -1.118262 3.059872 39.829294 -71.094395 33.568774 -54.667700 7.125000 0.000000 0.000000 -18.200100 29.204300 -25.575300 
0.448125 17.904088 0.308998 0.950339 -1.039669 3.217637 5.108624 3.671598 1.062600 -22.321351 -5.888776 6.100215 -1.991201 -0.881409 2.369947 -1.825656 9.398834 -0.458604 0.233400 -3.109200 -8.582900 -5.505589 -3.012827 0.627972 20.654192 11.626493 1.556595 -0.037609 -4.300146 13.832254 1.725564 -11.541675 -8.830379 -0.031300 1.141300 -3.137600 -4.234478 0.355724 2.010623 -1.997065 0.338986 6.292083 -0.995812 0.544109 -0.671429 -16.681151 -12.130655 -8.938356 8.416634 -16.506315 17.812799 4.455700 -8.445300 9.887600 -5.711161 -4.602795 2.181408 -38.585455 27.186103 95.334303 100.138996 -57.467625 -67.499006 3.875508 -2.383066 7.161909 51.941941 -18.058977 -17.548300 -7.125000 0.000000 0.000000 12.697700 6.448900 -11.483800 5.322273 4.098605 2.421895 41.761538 -22.805537 94.275792 -91.279296 56.680529 -57.337522 -1.122494 3.056659 39.766107 -70.913263 33.574796 -54.419600 7.125000 0.000000 0.000000 -18.105900 29.038200 -25.417200 
0.447461 17.903977 0.307782 0.992740 -1.033258 3.228416 5.108587 3.667733 1.060896 -22.359218 -5.903698 6.082922 -1.992035 -0.880283 2.367969 -1.825884 9.403449 -0.462168 0.226100 -3.060800 -8.447900 -5.506073 -3.011177 0.629162 20.614774 11.667733 1.526284 -0.041463 -4.317882 13.878589 1.724131 -11.543553 -8.875611 -0.031700 1.149300 -3.159700 -4.289126 0.359136 2.013126 -2.009027 0.340487 6.279906 -0.976926 0.545504 -0.686335 -16.650468 -12.123073 -8.976942 8.400527 -16.492154 17.819428 4.445300 -8.436300 9.889900 -5.709579 -4.603053 2.180809 -38.571540 27.181475 95.381050 100.113268 -57.469608 -67.474842 3.878191 -2.377553 7.177177 52.000142 -17.997826 -17.527300 -7.125000 0.000000 0.000000 12.744100 6.502900 -11.514400 5.321658 4.100426 2.421524 41.785385 -22.824265 94.249828 -91.221286 56.686418 -57.284049 -1.117572 3.059788 39.780582 -70.872867 33.667072 -54.429800 7.125000 0.000000 0.000000 -18.045600 29.095100 -25.332900 
0.446576 17.903977 0.307450 1.036334 -1.043770 3.231413 5.109032 3.665600 1.059910 -22.403894 -5.898268 6.074843 -1.993342 -0.879171 2.366894 -1.833764 9.446060 -0.491168 0.242700 -3.170300 -8.753200 -5.505960 -3.012217 0.628417 20.567486 11.638185 1.496341 -0.044578 -4.325900 13.900127 1.726046 -11.547185 -8.839892 -0.036100 1.226200 -3.371300 -4.349578 0.353970 1.999392 -2.022499 0.332296 6.281448 -0.955250 0.541382 -0.677238 -16.644000 -12.111181 -8.985814 8.458417 -16.480672 17.771875 4.467000 -8.425000 9.878000 -5.709717 -4.601098 2.180386 -38.600692 27.182443 95.349573 100.091277 -57.471235 -67.455462 3.876432 -2.378995 7.152965 51.961290 -18.032018 -17.536400 -7.125000 0.000000 0.000000 12.714800 6.474000 -11.493800 5.322213 4.102549 2.422035 41.795299 -22.804582 94.230746 -91.225140 56.687355 -57.291253 -1.106884 3.070597 39.628374 -70.698068 34.050637 -54.454300 7.125000 0.000000 0.000000 -17.795500 29.314300 -24.981400 
